<svg xmlns="http://www.w3.org/2000/svg" width="24.811" height="33.081" viewBox="0 0 24.811 33.081"><defs><style>.a{fill:#eae9e7;}</style></defs><path class="a" d="M14.473,8.787V0H1.551A1.547,1.547,0,0,0,0,1.551V31.53a1.547,1.547,0,0,0,1.551,1.551H23.26a1.547,1.547,0,0,0,1.551-1.551V10.338H16.023A1.555,1.555,0,0,1,14.473,8.787Zm4.211,13.957H14.473v5.169a1.033,1.033,0,0,1-1.034,1.034H11.372a1.033,1.033,0,0,1-1.034-1.034V22.744H6.126A1.034,1.034,0,0,1,5.4,20.976l6.23-6.183a1.1,1.1,0,0,1,1.553,0l6.23,6.183A1.033,1.033,0,0,1,18.684,22.744Zm5.674-15.96L18.033.452A1.549,1.549,0,0,0,16.935,0H16.54V8.27h8.27V7.876A1.546,1.546,0,0,0,24.358,6.784Z"/></svg>